<mxfile host="65bd71144e">
    <diagram id="G-sLq0d55iG927SIHQj-" name="Page-1">
        <mxGraphModel dx="1853" dy="827" grid="1" gridSize="10" guides="1" tooltips="1" connect="1" arrows="1" fold="1" page="1" pageScale="1" pageWidth="850" pageHeight="1100" math="0" shadow="0">
            <root>
                <mxCell id="0"/>
                <mxCell id="1" parent="0"/>
                <mxCell id="14" value="&lt;b&gt;Full System Simulation&lt;/b&gt;" style="rounded=0;whiteSpace=wrap;html=1;verticalAlign=top;fontSize=24;fillColor=#f5f5f5;fontColor=#333333;strokeColor=#666666;" parent="1" vertex="1">
                    <mxGeometry y="160" width="980" height="590" as="geometry"/>
                </mxCell>
                <mxCell id="6" value="" style="edgeStyle=none;html=1;fontSize=13;" parent="1" target="5" edge="1">
                    <mxGeometry relative="1" as="geometry">
                        <mxPoint x="320" y="310" as="sourcePoint"/>
                    </mxGeometry>
                </mxCell>
                <mxCell id="5" value="EMIB" style="rounded=1;whiteSpace=wrap;html=1;fillColor=#dae8fc;strokeColor=#6c8ebf;horizontal=1;verticalAlign=top;fontSize=13;" parent="1" vertex="1">
                    <mxGeometry x="360" y="250" width="60" height="120" as="geometry"/>
                </mxCell>
                <mxCell id="15" style="edgeStyle=none;html=1;entryX=0;entryY=0.25;entryDx=0;entryDy=0;horizontal=1;fontSize=13;" parent="1" source="16" target="20" edge="1">
                    <mxGeometry relative="1" as="geometry"/>
                </mxCell>
                <mxCell id="16" value="&lt;b&gt;AXI to AIB Converter&lt;/b&gt;&lt;div&gt;&lt;b&gt;Leader&lt;/b&gt;&lt;/div&gt;" style="rounded=0;whiteSpace=wrap;html=1;arcSize=3;fillColor=#fff2cc;strokeColor=#d6b656;fontSize=19;verticalAlign=top;horizontal=1;" parent="1" vertex="1">
                    <mxGeometry x="30" y="220" width="400" height="500" as="geometry"/>
                </mxCell>
                <mxCell id="17" style="edgeStyle=none;html=1;horizontal=1;fontSize=13;" parent="1" source="18" target="22" edge="1">
                    <mxGeometry relative="1" as="geometry">
                        <Array as="points">
                            <mxPoint x="110" y="490"/>
                            <mxPoint x="350" y="490"/>
                        </Array>
                    </mxGeometry>
                </mxCell>
                <mxCell id="18" value="Calibration&lt;div&gt;&lt;span style=&quot;color: rgb(0, 0, 0);&quot;&gt;FSM&lt;/span&gt;&lt;/div&gt;&lt;div&gt;Leader&lt;/div&gt;" style="rounded=0;whiteSpace=wrap;html=1;fontSize=18;verticalAlign=middle;fillColor=#f8cecc;strokeColor=#b85450;horizontal=1;" parent="1" vertex="1">
                    <mxGeometry x="60" y="520" width="100" height="80" as="geometry"/>
                </mxCell>
                <mxCell id="19" value="TX Phy" style="edgeStyle=none;html=1;exitX=1;exitY=0.25;exitDx=0;exitDy=0;entryX=0;entryY=0.25;entryDx=0;entryDy=0;horizontal=1;fontSize=13;" parent="1" source="20" target="22" edge="1">
                    <mxGeometry relative="1" as="geometry"/>
                </mxCell>
                <mxCell id="20" value="AXI-MM&lt;div&gt;Leader&lt;/div&gt;" style="rounded=0;whiteSpace=wrap;html=1;arcSize=15;fillColor=#dae8fc;strokeColor=#6c8ebf;fontSize=18;verticalAlign=top;horizontal=1;" parent="1" vertex="1">
                    <mxGeometry x="60" y="280" width="100" height="180" as="geometry"/>
                </mxCell>
                <mxCell id="21" value="Rx Phy" style="edgeStyle=none;html=1;entryX=1;entryY=0.75;entryDx=0;entryDy=0;exitX=0;exitY=0.75;exitDx=0;exitDy=0;horizontal=1;fontSize=13;" parent="1" source="22" target="20" edge="1">
                    <mxGeometry relative="1" as="geometry"/>
                </mxCell>
                <mxCell id="22" value="AIB PHY&lt;div&gt;Leader&lt;/div&gt;" style="rounded=0;whiteSpace=wrap;html=1;arcSize=15;fillColor=#e1d5e7;strokeColor=#9673a6;fontSize=18;verticalAlign=top;horizontal=1;" parent="1" vertex="1">
                    <mxGeometry x="280" y="280" width="120" height="180" as="geometry"/>
                </mxCell>
                <mxCell id="23" value="AXI4" style="endArrow=classic;html=1;startArrow=classic;startFill=1;horizontal=1;strokeWidth=2;fontSize=13;" parent="1" edge="1">
                    <mxGeometry width="50" height="50" relative="1" as="geometry">
                        <mxPoint y="320" as="sourcePoint"/>
                        <mxPoint x="60" y="320" as="targetPoint"/>
                    </mxGeometry>
                </mxCell>
                <mxCell id="24" value="Start" style="endArrow=classic;html=1;horizontal=1;fontSize=13;" parent="1" edge="1">
                    <mxGeometry width="50" height="50" relative="1" as="geometry">
                        <mxPoint y="560" as="sourcePoint"/>
                        <mxPoint x="60" y="560" as="targetPoint"/>
                    </mxGeometry>
                </mxCell>
                <mxCell id="26" value="calibration&lt;div&gt;done&lt;/div&gt;" style="edgeStyle=none;html=1;labelBorderColor=none;spacingTop=0;labelBackgroundColor=default;horizontal=1;fontSize=13;" parent="1" source="18" target="20" edge="1">
                    <mxGeometry relative="1" as="geometry"/>
                </mxCell>
                <mxCell id="27" value="Avalon MM&lt;div&gt;interface&lt;/div&gt;" style="rounded=0;whiteSpace=wrap;html=1;fontSize=18;verticalAlign=middle;fillColor=#f8cecc;strokeColor=#b85450;horizontal=1;" parent="1" vertex="1">
                    <mxGeometry x="60" y="630" width="100" height="60" as="geometry"/>
                </mxCell>
                <mxCell id="28" value="avmm" style="endArrow=classic;startArrow=classic;html=1;strokeWidth=2;fontSize=13;" parent="1" edge="1">
                    <mxGeometry width="50" height="50" relative="1" as="geometry">
                        <mxPoint y="660" as="sourcePoint"/>
                        <mxPoint x="60" y="659.5" as="targetPoint"/>
                    </mxGeometry>
                </mxCell>
                <mxCell id="29" value="Sideband" style="endArrow=classic;startArrow=classic;html=1;exitX=0.393;exitY=0.279;exitDx=0;exitDy=0;exitPerimeter=0;strokeWidth=2;fontSize=13;" parent="1" edge="1">
                    <mxGeometry width="50" height="50" relative="1" as="geometry">
                        <mxPoint x="159.99999999999994" y="350.08000000000015" as="sourcePoint"/>
                        <mxPoint x="279.92" y="350" as="targetPoint"/>
                    </mxGeometry>
                </mxCell>
                <mxCell id="30" value="Auxiliary" style="endArrow=classic;startArrow=classic;html=1;exitX=0.393;exitY=0.279;exitDx=0;exitDy=0;exitPerimeter=0;strokeWidth=2;fontSize=13;" parent="1" edge="1">
                    <mxGeometry width="50" height="50" relative="1" as="geometry">
                        <mxPoint x="159.99999999999994" y="380.08000000000015" as="sourcePoint"/>
                        <mxPoint x="279.92" y="380" as="targetPoint"/>
                    </mxGeometry>
                </mxCell>
                <mxCell id="35" value="&lt;b&gt;AXI to AIB Converter&lt;/b&gt;&lt;div&gt;&lt;b&gt;Follower&lt;/b&gt;&lt;/div&gt;" style="rounded=0;whiteSpace=wrap;html=1;arcSize=3;fillColor=#fff2cc;strokeColor=#d6b656;fontSize=19;verticalAlign=top;horizontal=1;" parent="1" vertex="1">
                    <mxGeometry x="565" y="220" width="390" height="500" as="geometry"/>
                </mxCell>
                <mxCell id="31" value="" style="edgeStyle=none;html=1;fontSize=13;" parent="1" edge="1">
                    <mxGeometry relative="1" as="geometry">
                        <mxPoint x="665" y="310" as="sourcePoint"/>
                        <mxPoint x="625" y="310" as="targetPoint"/>
                    </mxGeometry>
                </mxCell>
                <mxCell id="54" style="edgeStyle=none;html=1;" parent="1" source="37" target="41" edge="1">
                    <mxGeometry relative="1" as="geometry"/>
                </mxCell>
                <mxCell id="37" value="&lt;div&gt;&lt;span style=&quot;color: rgb(0, 0, 0);&quot;&gt;Calibration&lt;/span&gt;&lt;/div&gt;FSM&lt;div&gt;Follower&lt;/div&gt;" style="rounded=0;whiteSpace=wrap;html=1;fontSize=18;verticalAlign=middle;fillColor=#f8cecc;strokeColor=#b85450;horizontal=1;" parent="1" vertex="1">
                    <mxGeometry x="600" y="520" width="100" height="80" as="geometry"/>
                </mxCell>
                <mxCell id="25" value="&lt;div&gt;&lt;span style=&quot;background-color: light-dark(#ffffff, var(--ge-dark-color, #121212));&quot;&gt;PADs&lt;/span&gt;&lt;/div&gt;" style="endArrow=classic;startArrow=classic;html=1;horizontal=1;strokeWidth=2;entryX=0.025;entryY=0.37;entryDx=0;entryDy=0;exitX=1;exitY=0.25;exitDx=0;exitDy=0;fontSize=13;entryPerimeter=0;" parent="1" source="22" target="55" edge="1">
                    <mxGeometry width="50" height="50" relative="1" as="geometry">
                        <mxPoint x="410" y="320" as="sourcePoint"/>
                        <mxPoint x="500" y="320" as="targetPoint"/>
                        <mxPoint as="offset"/>
                    </mxGeometry>
                </mxCell>
                <mxCell id="38" value="TX Phy" style="edgeStyle=none;html=1;exitX=0;exitY=0.25;exitDx=0;exitDy=0;horizontal=1;entryX=1;entryY=0.25;entryDx=0;entryDy=0;fontSize=13;" parent="1" source="39" target="41" edge="1">
                    <mxGeometry relative="1" as="geometry"/>
                </mxCell>
                <mxCell id="39" value="AXI-MM&lt;div&gt;Follower&lt;/div&gt;" style="rounded=0;whiteSpace=wrap;html=1;arcSize=15;fillColor=#dae8fc;strokeColor=#6c8ebf;fontSize=18;verticalAlign=top;horizontal=1;" parent="1" vertex="1">
                    <mxGeometry x="825" y="280" width="100" height="180" as="geometry"/>
                </mxCell>
                <mxCell id="40" value="Rx Phy" style="edgeStyle=none;html=1;exitX=1;exitY=0.75;exitDx=0;exitDy=0;horizontal=1;fontSize=13;" parent="1" source="41" edge="1">
                    <mxGeometry relative="1" as="geometry">
                        <mxPoint x="825" y="415" as="targetPoint"/>
                    </mxGeometry>
                </mxCell>
                <mxCell id="41" value="AIB PHY&lt;div&gt;Follower&lt;/div&gt;" style="rounded=0;whiteSpace=wrap;html=1;arcSize=15;fillColor=#e1d5e7;strokeColor=#9673a6;fontSize=18;verticalAlign=top;horizontal=1;" parent="1" vertex="1">
                    <mxGeometry x="595" y="280" width="110" height="180" as="geometry"/>
                </mxCell>
                <mxCell id="42" value="AXI4" style="endArrow=classic;html=1;startArrow=classic;startFill=1;horizontal=1;strokeWidth=2;fontSize=13;" parent="1" edge="1">
                    <mxGeometry width="50" height="50" relative="1" as="geometry">
                        <mxPoint x="980" y="320" as="sourcePoint"/>
                        <mxPoint x="925" y="320" as="targetPoint"/>
                    </mxGeometry>
                </mxCell>
                <mxCell id="43" value="Start" style="endArrow=classic;html=1;horizontal=1;fontSize=13;" parent="1" edge="1">
                    <mxGeometry width="50" height="50" relative="1" as="geometry">
                        <mxPoint x="520" y="559.5" as="sourcePoint"/>
                        <mxPoint x="600" y="559.5" as="targetPoint"/>
                    </mxGeometry>
                </mxCell>
                <mxCell id="45" value="calibration&lt;div&gt;done&lt;/div&gt;" style="edgeStyle=none;html=1;labelBorderColor=none;spacingTop=0;labelBackgroundColor=default;horizontal=1;fontSize=13;" parent="1" source="37" target="39" edge="1">
                    <mxGeometry x="-0.8596" y="10" relative="1" as="geometry">
                        <Array as="points">
                            <mxPoint x="650" y="500"/>
                            <mxPoint x="875" y="500"/>
                        </Array>
                        <mxPoint as="offset"/>
                    </mxGeometry>
                </mxCell>
                <mxCell id="46" value="Avalon MM&lt;div&gt;interface&lt;/div&gt;" style="rounded=0;whiteSpace=wrap;html=1;fontSize=18;verticalAlign=middle;fillColor=#f8cecc;strokeColor=#b85450;horizontal=1;" parent="1" vertex="1">
                    <mxGeometry x="600" y="630" width="100" height="60" as="geometry"/>
                </mxCell>
                <mxCell id="47" value="avmm" style="endArrow=classic;startArrow=classic;html=1;strokeWidth=2;fontSize=13;" parent="1" edge="1">
                    <mxGeometry width="50" height="50" relative="1" as="geometry">
                        <mxPoint x="600" y="659.5" as="sourcePoint"/>
                        <mxPoint x="520" y="659.5" as="targetPoint"/>
                    </mxGeometry>
                </mxCell>
                <mxCell id="48" value="Sideband" style="endArrow=classic;startArrow=classic;html=1;exitX=0.393;exitY=0.279;exitDx=0;exitDy=0;exitPerimeter=0;strokeWidth=2;fontSize=13;" parent="1" edge="1">
                    <mxGeometry width="50" height="50" relative="1" as="geometry">
                        <mxPoint x="825" y="350.08000000000015" as="sourcePoint"/>
                        <mxPoint x="705.0799999999999" y="350" as="targetPoint"/>
                    </mxGeometry>
                </mxCell>
                <mxCell id="49" value="Auxiliary" style="endArrow=classic;startArrow=classic;html=1;exitX=0.393;exitY=0.279;exitDx=0;exitDy=0;exitPerimeter=0;strokeWidth=2;fontSize=13;" parent="1" edge="1">
                    <mxGeometry width="50" height="50" relative="1" as="geometry">
                        <mxPoint x="825" y="380.08000000000015" as="sourcePoint"/>
                        <mxPoint x="705.0799999999999" y="380" as="targetPoint"/>
                    </mxGeometry>
                </mxCell>
                <mxCell id="55" value="&lt;font&gt;Interposer (EMIB)&lt;/font&gt;" style="rounded=0;whiteSpace=wrap;html=1;horizontal=0;fontSize=18;" parent="1" vertex="1">
                    <mxGeometry x="470" y="220" width="60" height="280" as="geometry"/>
                </mxCell>
                <mxCell id="56" value="PADs" style="endArrow=classic;startArrow=classic;html=1;horizontal=1;strokeWidth=2;entryX=0;entryY=0.25;entryDx=0;entryDy=0;exitX=0.986;exitY=0.373;exitDx=0;exitDy=0;fontSize=13;exitPerimeter=0;" parent="1" source="55" target="41" edge="1">
                    <mxGeometry x="0.0021" width="50" height="50" relative="1" as="geometry">
                        <mxPoint x="410" y="335" as="sourcePoint"/>
                        <mxPoint x="472" y="334" as="targetPoint"/>
                        <mxPoint as="offset"/>
                    </mxGeometry>
                </mxCell>
            </root>
        </mxGraphModel>
    </diagram>
</mxfile>